<?xml version="1.0" encoding="UTF-8"?>
<svg version="1.1" xmlns="http://www.w3.org/2000/svg" width="300" height="300">
<path d="M0 0 C99 0 198 0 300 0 C300 99 300 198 300 300 C201 300 102 300 0 300 C0 201 0 102 0 0 Z " fill="#FDFDFD" transform="translate(0,0)"/>
<path d="M0 0 C13.66334634 5.98344529 23.30402426 17.67990295 31 30 C31.33741211 30.87567627 31.67482422 31.75135254 32.02246094 32.65356445 C33.71005743 35.13260121 33.71005743 35.13260121 35.89134216 35.4354248 C38.4352853 35.58135024 40.93329713 35.56105839 43.48046875 35.48828125 C44.40845779 35.48120651 45.33644684 35.47413177 46.29255676 35.46684265 C49.2583558 35.43883943 52.22227108 35.37609033 55.1875 35.3125 C57.19723837 35.28742478 59.20700632 35.26461026 61.21679688 35.24414062 C66.14525776 35.18899327 71.07230946 35.10267997 76 35 C76.45673096 34.05680908 76.91346191 33.11361816 77.3840332 32.1418457 C78.00183529 30.88218656 78.61993384 29.62267279 79.23828125 28.36328125 C79.68645203 27.43473328 79.68645203 27.43473328 80.14367676 26.48742676 C86.28294814 14.04118904 95.71022462 6.52651692 107 -1 C113.02856115 -1.98425488 116.6786152 0.04304813 121.578125 3.25 C135.5046928 13.31306835 139.21742976 29.79480423 142 46 C142.15268576 47.78396178 142.29105995 49.56921486 142.4140625 51.35546875 C142.78110308 55.49917437 143.5718051 57.59333668 146.5625 60.625 C177.80380407 96.49671164 179.37660171 161.9102054 179.37060547 206.46826172 C179.37507368 210.18630787 179.41187053 213.90324841 179.44921875 217.62109375 C179.45507308 220.02082937 179.45905171 222.42057048 179.4609375 224.8203125 C179.47530853 225.9140921 179.48967957 227.0078717 179.50448608 228.13479614 C179.46380853 234.9658958 178.33649398 240.0147986 175 246 C173.68 246 172.36 246 171 246 C167.45700389 239.40770396 167.27328624 232.94239604 166.875 225.5625 C166.75608398 223.64969238 166.75608398 223.64969238 166.63476562 221.69824219 C166.07690362 212.42436258 165.65625578 203.14193885 165.42919922 193.85375977 C165.27369304 188.85934575 164.7252526 184.32705453 163.53515625 179.47998047 C162.64345578 175.34772983 162.21524363 171.16053278 161.70849609 166.96655273 C157.50767744 132.34223325 149.67041037 96.5513901 131.65234375 66.2109375 C130.71732754 63.0419604 131.94724694 61.10654499 133 58 C133.21276558 55.00460857 133.0601727 52.057033 132.875 49.0625 C132.82569336 48.22710693 132.77638672 47.39171387 132.72558594 46.53100586 C131.65021104 31.75867659 127.55101766 15.79639016 117 5 C107.26646082 6.17982293 99.76188366 13.51454077 93.859375 20.80078125 C92.7538989 22.21628802 91.65498475 23.6369426 90.5625 25.0625 C89.76356323 26.08972168 89.76356323 26.08972168 88.94848633 27.13769531 C86.02657441 31.05882253 84.30630757 33.9655602 84 39 C84.7940625 39.49371094 85.588125 39.98742187 86.40625 40.49609375 C87.4271875 41.13675781 88.448125 41.77742188 89.5 42.4375 C90.5209375 43.07558594 91.541875 43.71367188 92.59375 44.37109375 C93.3878125 44.90863281 94.181875 45.44617188 95 46 C95 46.33 95 46.66 95 47 C90.61073672 46.60984326 87.28380536 45.71841563 83.25 43.9375 C70.83016396 39.34501002 56.15852757 42.02095887 43.3125 43.3125 C41.52211304 43.48857788 41.52211304 43.48857788 39.69555664 43.66821289 C33.29223463 44.37677906 27.93373516 45.5129675 22 48 C18.84360431 48.72673796 17.33857506 48.60203813 14 48 C9.46929542 43.56319603 7.69394534 36.94946656 6 31 C5.34 31 4.68 31 4 31 C3.54625 31.763125 3.0925 32.52625 2.625 33.3125 C0.97298697 36.04467539 -0.27761093 37.38358149 -3 39 C-3.99 39 -4.98 39 -6 39 C-6.37330149 32.77830845 -5.14421406 29.16526838 -1.6875 24.0625 C0 23 0 23 2.6875 22.9375 C8.68908944 24.86253812 13.52366389 28.74386306 17 34 C17.6875 36.75 17.6875 36.75 18 39 C20.64 38.67 23.28 38.34 26 38 C20.16618257 26.65483747 12.56341849 13.62609487 2 6 C-1.0047566 6.16783325 -1.81691286 6.82263434 -4 8.9375 C-6.69620252 13.06606011 -8.29273553 17.39252894 -10 22 C-10.495 23.19625 -10.99 24.3925 -11.5 25.625 C-13.96888319 32.19959501 -15.36974471 39.18106416 -17 46 C-19.875 46.125 -19.875 46.125 -23 46 C-25 44 -25 44 -25.3125 40.75 C-24.90317449 25.71410974 -19.71181785 11.39351791 -10 0 C-6.65782862 -1.67108569 -3.477237 -0.91598357 0 0 Z " fill="#0B0B0B" transform="translate(89,29)"/>
<path d="M0 0 C2.12890625 0.40234375 2.12890625 0.40234375 4 1 C4.1668869 7.36350449 3.63880722 13.07100087 2.35546875 19.29296875 C2.00585923 21.06372068 1.65624986 22.83447263 1.30664062 24.60522461 C1.03170776 25.97298538 1.03170776 25.97298538 0.7512207 27.36837769 C-0.19905656 32.12063854 -1.10788065 36.88082954 -2.01953125 41.640625 C-2.19670685 42.56423325 -2.37388245 43.48784149 -2.556427 44.43943787 C-8.56846399 75.82345066 -8.13254591 106.38675648 -4 138 C-3.56880859 136.09734375 -3.56880859 136.09734375 -3.12890625 134.15625 C-2.27817199 130.40233741 -1.11692007 128.41309941 2 126 C2.33 126 2.66 126 3 126 C3.01458252 126.83023682 3.02916504 127.66047363 3.04418945 128.51586914 C2.44584429 151.33822058 2.44584429 151.33822058 8 173 C8.99 170.36 9.98 167.72 11 165 C11.99 165 12.98 165 14 165 C14 169.62 14 174.24 14 179 C19.6517092 179.40433117 19.6517092 179.40433117 24 177 C24.65611832 174.29833633 24.81961333 171.79599339 25 169 C26.32 168.67 27.64 168.34 29 168 C31.12508244 171.18762365 31.5020163 173.26512223 32 177 C32.99 177.33 33.98 177.66 35 178 C35.22945312 176.76636719 35.45890625 175.53273438 35.6953125 174.26171875 C37.05477836 168.15845768 39.43941128 162.55353056 41.875 156.8125 C42.30941406 155.75869141 42.74382812 154.70488281 43.19140625 153.61914062 C47.46981567 143.42419205 47.46981567 143.42419205 51 139 C51.66 139 52.32 139 53 139 C52.56629084 144.09608264 51.27352565 147.88262542 49.1015625 152.4921875 C47.9015606 155.22410672 46.97474612 157.97192875 46.0625 160.8125 C43.70470255 168.08159886 41.25857371 175.61213944 37 182 C33.27203417 182.29238948 29.99849155 181.99974433 26.3125 181.375 C22.67305304 180.96298714 22.08743544 181.40950296 19 183 C12.83610729 183.59650575 9.92646684 183.05065051 5 179 C0.21276596 174.63829787 0.21276596 174.63829787 -1 171 C-1.01401855 172.56681519 -1.01401855 172.56681519 -1.02832031 174.1652832 C-1.06818874 178.040229 -1.13393741 181.91437814 -1.20751953 185.78881836 C-1.23574768 187.4657976 -1.2569531 189.14291035 -1.27099609 190.82006836 C-1.29240125 193.23100218 -1.33903426 195.64032784 -1.390625 198.05078125 C-1.39246796 199.17592888 -1.39246796 199.17592888 -1.39434814 200.32380676 C-1.48516248 203.54996531 -1.57501782 205.50821601 -3.72558594 207.99682617 C-6.33236591 209.14659634 -8.17996543 209.23500288 -11 209 C-11.71214184 201.37012934 -12.07892329 193.84809678 -11.95703125 186.19140625 C-11.94524841 185.42188629 -11.93346558 184.65236633 -11.92132568 183.85952759 C-11.89639423 182.25526856 -11.87140954 180.65101035 -11.84637451 179.04675293 C-11.6298448 163.16712704 -12.52461039 147.96700913 -14.9296875 132.265625 C-17.45382774 115.60745725 -18.4732941 99.15884267 -18.5 82.3125 C-18.50301117 81.24638489 -18.50602234 80.18026978 -18.50912476 79.08184814 C-18.50488413 55.18929043 -17.69453746 21.22861164 -2.0625 1.5625 C-1.381875 1.046875 -0.70125 0.53125 0 0 Z " fill="#0A0A0A" transform="translate(69,82)"/>
<path d="M0 0 C13.66334634 5.98344529 23.30402426 17.67990295 31 30 C31.3388623 30.87350098 31.67772461 31.74700195 32.02685547 32.64697266 C33.70957221 35.12596397 33.70957221 35.12596397 35.87760925 35.45602417 C38.40183142 35.63177192 40.8801387 35.63999643 43.41015625 35.59375 C44.7950248 35.59381042 44.7950248 35.59381042 46.20787048 35.59387207 C48.15891327 35.58851141 50.10995511 35.57090536 52.06079102 35.54199219 C55.05486652 35.50010679 58.04669642 35.50092392 61.04101562 35.5078125 C62.93491154 35.4973215 64.82879581 35.48438388 66.72265625 35.46875 C68.07110374 35.46844788 68.07110374 35.46844788 69.4467926 35.46813965 C70.69334877 35.44427185 70.69334877 35.44427185 71.96508789 35.41992188 C73.06404137 35.40729309 73.06404137 35.40729309 74.18519592 35.39440918 C76.4155223 35.12992357 76.4155223 35.12992357 78 32 C78.33 32.99 78.66 33.98 79 35 C80.65 34.67 82.3 34.34 84 34 C83.82984375 35.12148437 83.82984375 35.12148437 83.65625 36.265625 C83.71047811 39.22353107 83.71047811 39.22353107 86.40625 40.984375 C87.4271875 41.56703125 88.448125 42.1496875 89.5 42.75 C91.34142802 43.81951628 93.17711925 44.89916941 95 46 C95 46.33 95 46.66 95 47 C90.61073672 46.60984326 87.28380536 45.71841563 83.25 43.9375 C70.83016396 39.34501002 56.15852757 42.02095887 43.3125 43.3125 C41.52211304 43.48857788 41.52211304 43.48857788 39.69555664 43.66821289 C33.29223463 44.37677906 27.93373516 45.5129675 22 48 C18.84360431 48.72673796 17.33857506 48.60203813 14 48 C9.46929542 43.56319603 7.69394534 36.94946656 6 31 C5.34 31 4.68 31 4 31 C3.54625 31.763125 3.0925 32.52625 2.625 33.3125 C0.97298697 36.04467539 -0.27761093 37.38358149 -3 39 C-3.99 39 -4.98 39 -6 39 C-6.37330149 32.77830845 -5.14421406 29.16526838 -1.6875 24.0625 C0 23 0 23 2.6875 22.9375 C8.68908944 24.86253812 13.52366389 28.74386306 17 34 C17.6875 36.75 17.6875 36.75 18 39 C20.64 38.67 23.28 38.34 26 38 C20.16618257 26.65483747 12.56341849 13.62609487 2 6 C-1.0047566 6.16783325 -1.81691286 6.82263434 -4 8.9375 C-6.69620252 13.06606011 -8.29273553 17.39252894 -10 22 C-10.495 23.19625 -10.99 24.3925 -11.5 25.625 C-13.96888319 32.19959501 -15.36974471 39.18106416 -17 46 C-19.875 46.125 -19.875 46.125 -23 46 C-25 44 -25 44 -25.3125 40.75 C-24.90317449 25.71410974 -19.71181785 11.39351791 -10 0 C-6.65782862 -1.67108569 -3.477237 -0.91598357 0 0 Z " fill="#101010" transform="translate(89,29)"/>
<path d="M0 0 C-1.44726409 4.49341042 -3.10151684 8.87735934 -4.875 13.25 C-5.41301679 14.57932335 -5.95077683 15.90875064 -6.48828125 17.23828125 C-6.74818848 17.88104004 -7.0080957 18.52379883 -7.27587891 19.18603516 C-7.90284686 20.75662582 -8.50634863 22.33654568 -9.10546875 23.91796875 C-12.24484736 32.18286346 -15.71715668 39.85857834 -24 44 C-26.98404535 44.23801839 -29.96692704 44.38228972 -32.95703125 44.5234375 C-36.31050067 45.04862783 -38.13827282 46.24247623 -41 48 C-44.4156632 48.6315556 -47.57726215 48.59273219 -51 48 C-58.61402025 41.98893138 -60.62250372 27.86259177 -63 19 C-63.20109375 18.30132812 -63.4021875 17.60265625 -63.609375 16.8828125 C-64.07643539 14.63158143 -64.09627882 12.54695957 -64.0625 10.25 C-64.05347656 9.45078125 -64.04445312 8.6515625 -64.03515625 7.828125 C-64.02355469 7.22484375 -64.01195312 6.6215625 -64 6 C-62.68 5.67 -61.36 5.34 -60 5 C-57.57642214 10.31623531 -55.84107545 15.61597568 -54.3125 21.25 C-54.08755859 22.05179688 -53.86261719 22.85359375 -53.63085938 23.6796875 C-52.73826108 26.9245129 -52 29.61394548 -52 33 C-51.34 33 -50.68 33 -50 33 C-49.7525 32.2575 -49.505 31.515 -49.25 30.75 C-47.89534961 27.76976913 -46.4898459 26.10080748 -44 24 C-43.34 24 -42.68 24 -42 24 C-42.31201674 26.04174058 -42.62463569 28.08338913 -42.9375 30.125 C-43.19853516 31.83042969 -43.19853516 31.83042969 -43.46484375 33.5703125 C-43.95589266 36.71732669 -44.47018719 39.85930783 -45 43 C-42.1107662 43.24076948 -40.42321539 43.23675304 -37.86328125 41.8046875 C-35.45969866 39.47668927 -35.51022403 38.2294744 -35.4375 34.9375 C-35.37109375 32.27734375 -35.37109375 32.27734375 -35 30 C-32 28 -32 28 -29.875 28.3125 C-28 29 -28 29 -27 30 C-26.76119403 37.52238806 -26.76119403 37.52238806 -28 40 C-25.60084752 40.02766364 -25.60084752 40.02766364 -23 39 C-21.55225906 36.70569868 -20.52749396 34.72412528 -19.5 32.25 C-19.05346069 31.24042236 -19.05346069 31.24042236 -18.59790039 30.21044922 C-16.71946962 25.90518504 -15.05822538 21.53378995 -13.4375 17.125 C-7.03938039 0 -7.03938039 0 0 0 Z " fill="#121212" transform="translate(232,227)"/>
<path d="M0 0 C0.01458252 0.83023682 0.02916504 1.66047363 0.04418945 2.51586914 C-0.55415571 25.33822058 -0.55415571 25.33822058 5 47 C5.99 44.36 6.98 41.72 8 39 C8.99 39 9.98 39 11 39 C11 43.62 11 48.24 11 53 C16.6517092 53.40433117 16.6517092 53.40433117 21 51 C21.65611832 48.29833633 21.81961333 45.79599339 22 43 C23.98 42.505 23.98 42.505 26 42 C28.12508244 45.18762365 28.5020163 47.26512223 29 51 C29.99 51.33 30.98 51.66 32 52 C32.34417969 50.14955078 32.34417969 50.14955078 32.6953125 48.26171875 C34.05477836 42.15845768 36.43941128 36.55353056 38.875 30.8125 C39.30941406 29.75869141 39.74382812 28.70488281 40.19140625 27.61914062 C44.46981567 17.42419205 44.46981567 17.42419205 48 13 C48.66 13 49.32 13 50 13 C49.56629084 18.09608264 48.27352565 21.88262542 46.1015625 26.4921875 C44.9015606 29.22410672 43.97474612 31.97192875 43.0625 34.8125 C40.70470255 42.08159886 38.25857371 49.61213944 34 56 C30.27203417 56.29238948 26.99849155 55.99974433 23.3125 55.375 C19.67305304 54.96298714 19.08743544 55.40950296 16 57 C9.83610729 57.59650575 6.92646684 57.05065051 2 53 C-2.78723404 48.63829787 -2.78723404 48.63829787 -4 45 C-4.33 56.55 -4.66 68.1 -5 80 C-5.33 80 -5.66 80 -6 80 C-6.02505615 78.74678955 -6.0501123 77.4935791 -6.07592773 76.20239258 C-6.17183754 71.44402983 -6.27156887 66.68575285 -6.37231445 61.92749023 C-6.41498427 59.88844848 -6.45668865 57.84938624 -6.49731445 55.81030273 C-6.5567102 52.83831576 -6.61958998 49.86642233 -6.68359375 46.89453125 C-6.70352386 45.90679718 -6.72345398 44.91906311 -6.74398804 43.90139771 C-6.85590831 38.98388482 -7.03651486 34.08544374 -7.36376953 29.17724609 C-7.42282974 28.2441008 -7.48188995 27.31095551 -7.54273987 26.34953308 C-7.65810397 24.61005062 -7.78809741 22.87144033 -7.93663025 21.13447571 C-8.40024617 14.05984876 -7.43674243 7.01009359 -2.875 1.375 C-1 0 -1 0 0 0 Z " fill="#1B1B1B" transform="translate(72,208)"/>
<path d="M0 0 C4.4406473 0.08684447 7.17012666 0.4158396 10.6875 3.3125 C12.04875 4.3334375 12.04875 4.3334375 13.4375 5.375 C16.21188573 7.76405438 16.62113237 8.54927228 16.9375 12.1875 C16.66387294 15.60783822 15.97389008 16.83557741 13.6875 19.3125 C14.3475 20.6325 15.0075 21.9525 15.6875 23.3125 C19.22716455 22.30116727 21.77344718 21.25233697 24.8125 19.125 C27.6875 17.3125 27.6875 17.3125 29.875 17.4375 C31.6875 18.3125 31.6875 18.3125 34.6875 20.3125 C34.6875 20.9725 34.6875 21.6325 34.6875 22.3125 C28.98594751 26.25431407 24.2743284 28.11521428 17.28515625 27.8203125 C13.12485151 27.00701984 10.82762048 25.1037182 7.6875 22.3125 C7.28917969 22.79460937 6.89085937 23.27671875 6.48046875 23.7734375 C5.95066406 24.40507812 5.42085937 25.03671875 4.875 25.6875 C4.35292969 26.31398437 3.83085937 26.94046875 3.29296875 27.5859375 C1.34053871 29.68563112 -0.37777125 31.15108098 -3.2578125 31.6484375 C-10.39342993 31.77631595 -16.05165302 30.19527777 -21.46875 25.40625 C-25.01562739 21.63417405 -25.01562739 21.63417405 -26.3125 19.3125 C-25.9921875 17.0625 -25.9921875 17.0625 -25.3125 15.3125 C-23.48046875 15.52734375 -23.48046875 15.52734375 -21.3125 16.3125 C-19.92578125 18.37890625 -19.92578125 18.37890625 -18.625 20.875 C-16.529682 24.29012159 -16.529682 24.29012159 -13.1015625 26.08203125 C-8.76231819 26.27664852 -6.80488472 25.69204656 -3.3125 23 C-1.17440943 20.41937116 -1.17440943 20.41937116 -0.3125 17.3125 C-1.281875 16.52875 -2.25125 15.745 -3.25 14.9375 C-5.15212346 13.39961295 -6.20879957 12.51990087 -7.3125 10.3125 C-7.48046875 8.4375 -7.48046875 8.4375 -7.5 6.3125 C-7.51417969 5.61125 -7.52835938 4.91 -7.54296875 4.1875 C-6.99103335 -0.30282192 -3.72365091 0.01511631 0 0 Z " fill="#0D0D0D" transform="translate(139.3125,150.6875)"/>
<path d="M0 0 C8.20376856 4.15495857 14.22457821 12.35932513 19 20 C15.24890721 20.29420336 12.7638541 20.42850352 9.4375 18.5625 C6.08881952 15.04209231 3.55964822 11.11654765 1 7 C-1.97065509 7.34227572 -1.97065509 7.34227572 -5 8 C-5.33 8.66 -5.66 9.32 -6 10 C-6.66 10 -7.32 10 -8 10 C-8.268125 10.7425 -8.53625 11.485 -8.8125 12.25 C-9.99591088 14.99053046 -10.84938363 16.92619135 -13 19 C-16.1875 19.25 -16.1875 19.25 -19 19 C-20.11041205 16.23050172 -20.06808436 15.17405024 -18.9609375 12.34375 C-14.28861594 3.96579409 -10.4730349 -2.28056036 0 0 Z " fill="#111111" transform="translate(108,116)"/>
<path d="M0 0 C3.6268037 1.941486 7.02665094 4.06572761 8.91796875 7.82421875 C9.4772404 9.89730839 9.77964381 11.86366537 10 14 C10.10699219 14.90234375 10.21398437 15.8046875 10.32421875 16.734375 C10.58746336 19.1548579 10.81099297 21.57275184 11 24 C8.14693356 24.2338579 5.79622465 24.41446017 3 24 C-0.59420979 20.52173247 -0.48962953 15.96231204 -0.7890625 11.20703125 C-0.87020518 8.95951661 -0.87020518 8.95951661 -2 7 C-2.79664063 7.77537109 -2.79664063 7.77537109 -3.609375 8.56640625 C-4.31578125 9.22511719 -5.0221875 9.88382813 -5.75 10.5625 C-6.79414063 11.55443359 -6.79414063 11.55443359 -7.859375 12.56640625 C-10 14 -10 14 -12.265625 13.71484375 C-12.83796875 13.47894531 -13.4103125 13.24304688 -14 13 C-13.60002115 7.53362233 -11.558228 4.02379055 -8 0 C-4.93256346 -1.53371827 -3.29840304 -0.91622307 0 0 Z " fill="#0F0F0F" transform="translate(197,51)"/>
<path d="M0 0 C8.13084836 2.65865835 17.03509738 8.73006638 21.28125 16.27734375 C21.5184375 16.84582031 21.755625 17.41429687 22 18 C18.47403548 18.3279967 16.543928 18.339955 13.5 16.4375 C11.47089497 14.45912259 9.77078938 12.50791744 8 10.3125 C6.16266407 8.13855291 5.18021066 7.08317415 2.5625 5.875 C-4.24594461 6.20711925 -8.3554927 9.90145962 -13.0078125 14.4765625 C-15.33270862 16.25442424 -17.12605593 16.6320556 -20 17 C-20.31520284 13.42425629 -20.36819767 11.5562321 -18.35546875 8.515625 C-17.64003906 7.76796875 -16.92460937 7.0203125 -16.1875 6.25 C-15.47980469 5.49203125 -14.77210938 4.7340625 -14.04296875 3.953125 C-9.47352113 -0.41537177 -6.06413854 -0.88239787 0 0 Z " fill="#151515" transform="translate(190,116)"/>
<path d="M0 0 C0 3 0 3 -1.35546875 4.38671875 C-7.42147893 8.69371531 -7.42147893 8.69371531 -12 8 C-12 6.68 -12 5.36 -12 4 C-7.99873708 0.57034607 -5.24242317 -0.4992784 0 0 Z " fill="#181818" transform="translate(210,148)"/>
<path d="M0 0 C0.70125 0.2475 1.4025 0.495 2.125 0.75 C0.63233258 4.54951706 -1.42781135 6.5854862 -4.875 8.75 C-7.6875 8.5 -7.6875 8.5 -9.875 7.75 C-9.75 6 -9.75 6 -8.875 3.75 C-4.00173056 -0.34797657 -4.00173056 -0.34797657 0 0 Z " fill="#191919" transform="translate(78.875,154.25)"/>
<path d="M0 0 C-1.36983503 3.16115776 -1.9890638 3.9927092 -5 6 C-7.6875 6.125 -7.6875 6.125 -10 6 C-10 2 -10 2 -8.375 0.1875 C-5.22873707 -1.38563147 -3.34431617 -0.83607904 0 0 Z " fill="#181818" transform="translate(90,157)"/>
<path d="M0 0 C0 0.66 0 1.32 0 2 C-3.71973879 4.84450614 -6.37390802 5.3227506 -11 5 C-11 2 -11 2 -9.4375 0.25 C-6.02862887 -1.49813904 -3.66340563 -0.77495119 0 0 Z " fill="#1C1C1C" transform="translate(219,152)"/>
<path d="M0 0 C2.625 0.375 2.625 0.375 5 1 C5 1.99 5 2.98 5 4 C3 6 3 6 -0.625 6.125 C-1.73875 6.08375 -2.8525 6.0425 -4 6 C-2.84826645 3.53199953 -1.95216435 1.95216435 0 0 Z " fill="#111111" transform="translate(93,157)"/>
<path d="M0 0 C0.33 0.99 0.66 1.98 1 3 C2.98 2.67 4.96 2.34 7 2 C5.55609075 5.80666984 3.65047197 7.26602582 0 9 C-0.66 8.67 -1.32 8.34 -2 8 C-1.33333333 5.33333333 -0.66666667 2.66666667 0 0 Z " fill="#9B9B9B" transform="translate(182,61)"/>
<path d="M0 0 C0.763125 0.20625 1.52625 0.4125 2.3125 0.625 C2.6425 1.615 2.9725 2.605 3.3125 3.625 C0.60370665 4.97939668 -1.69683268 4.69001451 -4.6875 4.625 C-5.0175 3.635 -5.3475 2.645 -5.6875 1.625 C-2.6875 -0.375 -2.6875 -0.375 0 0 Z " fill="#2A2A2A" transform="translate(224.6875,153.375)"/>
<path d="M0 0 C0.88987471 3.30524893 1.44870924 6.62334408 2 10 C2.32635698 11.66804677 2.65725594 13.33524314 3 15 C0.3576299 13.67881495 -0.01619984 12.34190808 -1.25 9.6875 C-1.62640625 8.90761719 -2.0028125 8.12773438 -2.390625 7.32421875 C-3 5 -3 5 -2.171875 2.76953125 C-1 1 -1 1 0 0 Z " fill="#484848" transform="translate(223,88)"/>
<path d="M0 0 C1.32 0.33 2.64 0.66 4 1 C4 3.97 4 6.94 4 10 C3.67 10 3.34 10 3 10 C2.67 7.69 2.34 5.38 2 3 C1.34 3 0.68 3 0 3 C0 3.66 0 4.32 0 5 C-1.32 5.33 -2.64 5.66 -4 6 C-4 4 -4 4 -2.25 1.8125 C-1.5075 1.214375 -0.765 0.61625 0 0 Z " fill="#737373" transform="translate(69,82)"/>
<path d="M0 0 C0.4125 0.474375 0.825 0.94875 1.25 1.4375 C3.182185 3.16266518 4.48192275 3.56584875 7 4 C4.6875 5.5625 4.6875 5.5625 2 7 C1.01 6.67 0.02 6.34 -1 6 C-0.67 4.02 -0.34 2.04 0 0 Z " fill="#484848" transform="translate(184,58)"/>
<path d="M0 0 C0.99 1.32 1.98 2.64 3 4 C4.98 2.68 6.96 1.36 9 0 C7.61198929 3.35435922 6.11371 5.11290303 3 7 C2.01 7 1.02 7 0 7 C0 4.69 0 2.38 0 0 Z " fill="#6B6B6B" transform="translate(83,61)"/>
<path d="M0 0 C0.66 0.99 1.32 1.98 2 3 C3.65 2.67 5.3 2.34 7 2 C6.67 3.65 6.34 5.3 6 7 C1.545 6.01 1.545 6.01 -3 5 C-2.01 3.35 -1.02 1.7 0 0 Z " fill="#747474" transform="translate(166,61)"/>
<path d="M0 0 C-0.70125 0.391875 -1.4025 0.78375 -2.125 1.1875 C-5.36074432 3.22742577 -8.10257782 5.50686929 -11 8 C-10.34 6.35 -9.68 4.7 -9 3 C-8.34 3 -7.68 3 -7 3 C-6.67 2.01 -6.34 1.02 -6 0 C-3.50907189 -1.24546405 -2.58919267 -0.7767578 0 0 Z " fill="#CDCDCD" transform="translate(109,123)"/>
<path d="M0 0 C0.33 0.99 0.66 1.98 1 3 C-0.32 4.32 -1.64 5.64 -3 7 C-3.66 5.68 -4.32 4.36 -5 3 C-3.35 2.01 -1.7 1.02 0 0 Z " fill="#B9B9B9" transform="translate(88,65)"/>
<path d="M0 0 C0.66 0 1.32 0 2 0 C1.67 2.31 1.34 4.62 1 7 C0.34 6.34 -0.32 5.68 -1 5 C-1.99 5.495 -1.99 5.495 -3 6 C-1.125 1.125 -1.125 1.125 0 0 Z " fill="#353535" transform="translate(120,221)"/>
</svg>
